<svg width="30" height="30" viewBox="0 0 30 30" fill="none" xmlns="http://www.w3.org/2000/svg">
<path d="M28.9108 25.9593L16.2282 1.86132C15.9077 1.25229 15.3322 0.879883 14.7115 0.879883C14.0907 0.879883 13.5152 1.25222 13.1947 1.86132L0.512217 25.9593C0.182379 26.5861 0.172612 27.3678 0.486754 28.0051C0.800896 28.6424 1.39017 29.0364 2.02895 29.0364H27.394C28.0328 29.0364 28.6221 28.6423 28.9362 28.0051C29.2504 27.3678 29.2406 26.5861 28.9108 25.9593ZM14.7209 9.21565C15.4493 9.21565 16.0656 9.68645 16.0656 10.5209C16.0656 13.0672 15.8042 16.7263 15.8042 19.2726C15.8042 19.936 15.1692 20.2141 14.7209 20.2141C14.1234 20.2141 13.6191 19.9359 13.6191 19.2726C13.6191 16.7263 13.3577 13.0672 13.3577 10.5209C13.3577 9.68645 13.9552 9.21565 14.7209 9.21565ZM14.7396 24.9859C13.9179 24.9859 13.3015 24.2156 13.3015 23.3383C13.3015 22.4396 13.9179 21.6907 14.7396 21.6907C15.5053 21.6907 16.159 22.4396 16.159 23.3383C16.159 24.2156 15.5053 24.9859 14.7396 24.9859Z" fill="#E8AF59"/>
</svg>
